<svg width="21" height="21" viewBox="0 0 21 21" fill="none" xmlns="http://www.w3.org/2000/svg">
<g clip-path="url(#clip0_1_125)">
<path d="M1.26222 11.975C1.34814 11.9889 1.4351 11.9954 1.52211 11.9942L16.3372 11.9942L16.0141 12.1445C15.6984 12.2939 15.4111 12.4973 15.1652 12.7455L11.0107 16.9C10.4635 17.4223 10.3716 18.2626 10.7928 18.8909C11.2831 19.5604 12.2232 19.7058 12.8928 19.2155C12.9469 19.1759 12.9983 19.1327 13.0466 19.0862L20.5593 11.5735C21.1464 10.9871 21.147 10.0357 20.5605 9.4486C20.5601 9.44822 20.5597 9.4478 20.5593 9.44742L13.0466 1.93473C12.459 1.34879 11.5077 1.3501 10.9217 1.93769C10.8756 1.98394 10.8325 2.03315 10.7928 2.08498C10.3716 2.71328 10.4635 3.55353 11.0107 4.07585L15.1577 8.23788C15.3781 8.45857 15.6316 8.64361 15.909 8.78631L16.3597 8.98915L1.6048 8.98915C0.837233 8.96065 0.163813 9.49682 0.0196152 10.2513C-0.113218 11.0704 0.443098 11.8421 1.26222 11.975Z" fill="#D80027"/>
</g>
<defs>
<clipPath id="clip0_1_125">
<rect width="21" height="21" fill="white" transform="matrix(-1 0 0 -1 21 21)"/>
</clipPath>
</defs>
</svg>
