<svg width="199" height="276" viewBox="0 0 199 276" fill="none" xmlns="http://www.w3.org/2000/svg">
<g filter="url(#filter0_d_1_11)">
<path d="M36.5273 23.6763L55.7921 137.66L96.7299 107.98L120.008 91.1032L138.47 107.98L74.2542 153.714V199.021C84.5239 204.81 93.4185 208.495 99.138 208.298V250.038C94.3218 250.841 82.1207 251.483 71.8461 247.63V197.64C66.7205 194.652 61.2988 191.192 55.7921 187.469V238.8L30.9084 215.522V169.46C20.6886 161.638 11.3486 154.012 4.41924 148.095C0.566269 94.1534 24.2192 42.6735 36.5273 23.6763Z" fill="url(#paint0_linear_1_11)"/>
<path d="M99.138 165.754L156.932 125.619C160.143 130.168 166.244 142.155 164.959 153.714C165.762 164.966 169.294 187.469 177 187.469V230.773L156.932 247.63V199.021C154.257 197.564 147.461 189.996 141.681 171.373L115.192 189.835C120.811 197.327 133.333 212.472 138.47 213.114V255.657C136.865 250.469 129.962 241.118 115.192 245.222V189.835C113.587 184.484 108.128 172.176 99.138 165.754Z" fill="url(#paint1_linear_1_11)"/>
<path d="M68.9428 66.1519C74.7983 46.4561 81.1861 28.3573 100.882 6L95.1256 109.27L68.9428 66.1519Z" fill="url(#paint2_linear_1_11)"/>
</g>
<defs>
<filter id="filter0_d_1_11" x="0" y="0" width="199" height="275.657" filterUnits="userSpaceOnUse" color-interpolation-filters="sRGB">
<feFlood flood-opacity="0" result="BackgroundImageFix"/>
<feColorMatrix in="SourceAlpha" type="matrix" values="0 0 0 0 0 0 0 0 0 0 0 0 0 0 0 0 0 0 127 0" result="hardAlpha"/>
<feOffset dx="9" dy="7"/>
<feGaussianBlur stdDeviation="6.5"/>
<feComposite in2="hardAlpha" operator="out"/>
<feColorMatrix type="matrix" values="0 0 0 0 0.0940238 0 0 0 0 0 0 0 0 0 0.212791 0 0 0 1 0"/>
<feBlend mode="normal" in2="BackgroundImageFix" result="effect1_dropShadow_1_11"/>
<feBlend mode="normal" in="SourceGraphic" in2="effect1_dropShadow_1_11" result="shape"/>
</filter>
<linearGradient id="paint0_linear_1_11" x1="90.5" y1="23.6763" x2="96.1123" y2="487.821" gradientUnits="userSpaceOnUse">
<stop stop-color="#00D1FF"/>
<stop offset="0.542812" stop-color="#FF429D"/>
</linearGradient>
<linearGradient id="paint1_linear_1_11" x1="90.5" y1="23.6763" x2="96.1123" y2="487.821" gradientUnits="userSpaceOnUse">
<stop stop-color="#00D1FF"/>
<stop offset="0.542812" stop-color="#FF429D"/>
</linearGradient>
<linearGradient id="paint2_linear_1_11" x1="84.9123" y1="6" x2="90.9323" y2="212.476" gradientUnits="userSpaceOnUse">
<stop stop-color="#00D1FF"/>
<stop offset="0.542812" stop-color="#FF429D"/>
</linearGradient>
</defs>
</svg>
